<?xml version="1.0" encoding="utf-8"?>
<!-- Generator: Adobe Illustrator 16.0.0, SVG Export Plug-In . SVG Version: 6.00 Build 0)  -->
<!DOCTYPE svg PUBLIC "-//W3C//DTD SVG 1.1//EN" "http://www.w3.org/Graphics/SVG/1.1/DTD/svg11.dtd">
<svg version="1.1" id="Layer_1" xmlns="http://www.w3.org/2000/svg" xmlns:xlink="http://www.w3.org/1999/xlink" x="0px" y="0px"
	 width="19px" height="5.563px" viewBox="11.813 6.063 19 5.563" enable-background="new 11.813 6.063 19 5.563"
	 xml:space="preserve">
<path fill="#139AD6" d="M26.414,7.9h-0.971c-0.058,0-0.115,0.057-0.144,0.114L24.9,10.528c0,0.058,0.028,0.086,0.086,0.086H25.5
	c0.057,0,0.086-0.028,0.086-0.086L25.7,9.814c0-0.057,0.058-0.114,0.143-0.114h0.314c0.657,0,1.028-0.314,1.114-0.943
	c0.057-0.257,0-0.486-0.114-0.629C26.986,7.986,26.729,7.9,26.414,7.9 M26.528,8.843c-0.057,0.343-0.313,0.343-0.571,0.343h-0.172
	L25.9,8.528c0-0.028,0.028-0.057,0.086-0.057h0.057c0.172,0,0.343,0,0.429,0.114C26.528,8.614,26.528,8.7,26.528,8.843"/>
<g>
	<path fill="#263B80" d="M19.414,7.9h-0.971c-0.057,0-0.114,0.057-0.143,0.114l-0.4,2.514c0,0.058,0.029,0.086,0.086,0.086h0.457
		c0.057,0,0.114-0.058,0.143-0.114L18.7,9.814c0-0.057,0.057-0.114,0.143-0.114h0.314c0.657,0,1.028-0.314,1.114-0.943
		c0.057-0.257,0-0.486-0.114-0.629C19.986,7.986,19.757,7.9,19.414,7.9 M19.528,8.843c-0.057,0.343-0.314,0.343-0.571,0.343h-0.143
		l0.114-0.657c0-0.028,0.028-0.057,0.085-0.057h0.057c0.171,0,0.343,0,0.429,0.114C19.528,8.614,19.557,8.7,19.528,8.843"/>
	<path fill="#263B80" d="M22.357,8.814H21.9c-0.028,0-0.085,0.028-0.085,0.057l-0.029,0.143l-0.028-0.057
		c-0.114-0.143-0.314-0.2-0.543-0.2c-0.514,0-0.972,0.4-1.057,0.943c-0.057,0.286,0.028,0.542,0.171,0.714s0.343,0.229,0.6,0.229
		c0.428,0,0.657-0.257,0.657-0.257l-0.029,0.143c0,0.058,0.029,0.086,0.086,0.086h0.428c0.058,0,0.114-0.058,0.144-0.114l0.257-1.6
		C22.443,8.872,22.386,8.814,22.357,8.814 M21.7,9.729c-0.057,0.258-0.257,0.457-0.543,0.457c-0.143,0-0.257-0.057-0.314-0.114
		c-0.057-0.085-0.085-0.2-0.085-0.343c0.028-0.257,0.257-0.457,0.514-0.457c0.143,0,0.229,0.057,0.314,0.114
		C21.671,9.472,21.7,9.614,21.7,9.729"/>
</g>
<path fill="#139AD6" d="M29.328,8.814h-0.457c-0.028,0-0.086,0.028-0.086,0.057l-0.027,0.143l-0.029-0.057
	c-0.114-0.143-0.314-0.2-0.543-0.2c-0.514,0-0.971,0.4-1.057,0.943c-0.058,0.286,0.028,0.542,0.171,0.714
	c0.144,0.172,0.343,0.229,0.601,0.229c0.428,0,0.656-0.257,0.656-0.257l-0.028,0.143c0,0.058,0.028,0.086,0.086,0.086h0.429
	c0.057,0,0.114-0.058,0.143-0.114l0.258-1.6C29.414,8.872,29.386,8.814,29.328,8.814 M28.672,9.729
	c-0.058,0.258-0.258,0.457-0.543,0.457c-0.143,0-0.258-0.057-0.314-0.114c-0.057-0.085-0.086-0.2-0.086-0.343
	c0.029-0.257,0.258-0.457,0.514-0.457c0.144,0,0.229,0.057,0.314,0.114C28.672,9.472,28.7,9.614,28.672,9.729"/>
<path fill="#263B80" d="M24.843,8.814h-0.485c-0.058,0-0.086,0.028-0.115,0.057l-0.628,0.971l-0.286-0.914
	c-0.028-0.057-0.057-0.086-0.143-0.086h-0.457c-0.057,0-0.086,0.057-0.086,0.114l0.515,1.515l-0.485,0.686
	c-0.029,0.058,0,0.143,0.057,0.143h0.457c0.057,0,0.086-0.028,0.114-0.058l1.571-2.256C24.957,8.9,24.9,8.814,24.843,8.814"/>
<path fill="#139AD6" d="M29.871,7.986l-0.399,2.571c0,0.058,0.028,0.086,0.085,0.086h0.4c0.057,0,0.114-0.057,0.143-0.114l0.4-2.514
	c0-0.057-0.028-0.085-0.086-0.085h-0.457C29.929,7.9,29.9,7.929,29.871,7.986"/>
<path fill="#263B80" d="M15.786,7.043C15.586,6.814,15.214,6.7,14.7,6.7h-1.429c-0.086,0-0.171,0.085-0.2,0.171L12.5,10.614
	c0,0.086,0.057,0.144,0.114,0.144H13.5l0.229-1.401v0.057c0.029-0.085,0.114-0.171,0.2-0.171h0.428c0.829,0,1.458-0.343,1.657-1.286
	c0-0.028,0-0.057,0-0.085c-0.028,0-0.028,0,0,0C16.043,7.5,15.986,7.271,15.786,7.043"/>
<path fill="#139AD6" d="M15.986,7.872L15.986,7.872c0,0.028,0,0.057,0,0.085c-0.2,0.972-0.829,1.286-1.657,1.286H13.9
	c-0.085,0-0.171,0.086-0.2,0.171l-0.286,1.743c0,0.058,0.029,0.114,0.114,0.114h0.743c0.085,0,0.171-0.057,0.171-0.143V11.1
	l0.143-0.885v-0.058c0-0.086,0.085-0.144,0.171-0.144h0.114c0.714,0,1.286-0.285,1.428-1.142c0.057-0.343,0.029-0.657-0.143-0.857
	C16.128,7.957,16.071,7.9,15.986,7.872"/>
<path fill="#232C65" d="M15.786,7.786c-0.028,0-0.057-0.028-0.085-0.028c-0.029,0-0.057,0-0.086-0.029
	C15.5,7.7,15.386,7.7,15.243,7.7h-1.114c-0.028,0-0.057,0-0.085,0.028c-0.057,0.029-0.086,0.086-0.086,0.143l-0.229,1.485v0.057
	c0.029-0.085,0.114-0.171,0.2-0.171h0.428c0.829,0,1.458-0.343,1.657-1.286c0-0.028,0-0.057,0.029-0.085
	c-0.057-0.029-0.086-0.057-0.143-0.057C15.814,7.786,15.814,7.786,15.786,7.786"/>
</svg>
