<?xml version="1.0" encoding="utf-8"?>
<!-- Generator: Adobe Illustrator 15.1.0, SVG Export Plug-In . SVG Version: 6.00 Build 0)  -->
<!DOCTYPE svg PUBLIC "-//W3C//DTD SVG 1.1//EN" "http://www.w3.org/Graphics/SVG/1.1/DTD/svg11.dtd">
<svg version="1.1" id="Layer_1" xmlns="http://www.w3.org/2000/svg" xmlns:xlink="http://www.w3.org/1999/xlink" x="0px" y="0px"
	 width="85px" height="31px" viewBox="0 0 85 31" enable-background="new 0 0 85 31" xml:space="preserve">
<g>
	<path fill-rule="evenodd" clip-rule="evenodd" fill="#EE3625" d="M67.676,19.269c2.435,0,4.414,2.016,4.414,4.492
		c0,2.476-1.979,4.487-4.414,4.487c-2.434,0-4.416-2.012-4.416-4.487C63.26,21.284,65.242,19.269,67.676,19.269L67.676,19.269z
		 M67.676,27.244c1.89,0,3.427-1.563,3.427-3.483c0-1.924-1.537-3.487-3.427-3.487c-1.891,0-3.428,1.563-3.428,3.487
		C64.248,25.682,65.785,27.244,67.676,27.244L67.676,27.244z"/>
	<path fill-rule="evenodd" clip-rule="evenodd" fill="#EE3625" d="M17.846,19.269c2.436,0,4.413,2.016,4.413,4.492
		c0,2.476-1.978,4.487-4.413,4.487c-2.434,0-4.413-2.012-4.413-4.487C13.433,21.284,15.412,19.269,17.846,19.269L17.846,19.269z
		 M17.846,27.244c1.889,0,3.426-1.563,3.426-3.483c0-1.924-1.537-3.487-3.426-3.487s-3.424,1.563-3.424,3.487
		C14.422,25.682,15.957,27.244,17.846,27.244L17.846,27.244z"/>
	<path fill-rule="evenodd" clip-rule="evenodd" fill="#EE3625" d="M1.198,15.117c0.027-0.039,0.054-0.065,0.089-0.092V9.227
		c0-0.277,0.22-0.502,0.493-0.502c4.035,0,6.938-1.531,10.302-3.302c1.905-1.004,3.878-2.044,6.281-2.942
		c7.219-2.713,19.39-2.891,27.638-1.914c8.728,1.033,17.177,6.701,18.165,7.38c1.218,0.251,11.83,2.462,15.381,3.583
		c3.285,1.033,3.847,3.836,3.939,4.849c0.906,0.398,1.511,1.313,1.511,2.336v5.017c0,1.4-1.124,2.542-2.505,2.542h-8.166
		C73.318,29.023,70.73,31,67.677,31s-5.643-1.977-6.651-4.728H24.5C23.491,29.023,20.9,31,17.847,31
		c-3.053,0-5.644-1.977-6.653-4.73l-0.711-0.007l-7.978-1.428C1.124,24.835,0,23.692,0,22.288V17.27
		C0,16.385,0.47,15.572,1.198,15.117L1.198,15.117z M4.066,14.903c0.204,0,0.561-0.025,0.659-0.201
		c0.065-0.112,0.204-0.596-0.67-2.14c-0.496-0.877-1.32-1.033-1.782-1.051v3.392H4.066L4.066,14.903z M82.242,15.307
		c-1.149-1.289-3.616-1.023-4.914-0.761l1.661,1.69h3.49C82.444,15.988,82.365,15.667,82.242,15.307L82.242,15.307z M82.923,17.241
		h-4.137c-0.13,0-0.255-0.054-0.349-0.148l-2.435-2.473c-0.122-0.125-0.171-0.306-0.131-0.479c0.044-0.17,0.172-0.307,0.338-0.357
		c0.147-0.047,2.754-0.813,4.892-0.248c-0.455-0.422-1.051-0.798-1.845-1.049C75.614,11.34,63.99,8.938,63.873,8.914
		c-0.063-0.016-0.128-0.041-0.18-0.08c-0.091-0.063-8.96-6.224-17.808-7.271C37.749,0.598,25.774,0.775,18.707,3.42
		c-2.348,0.881-4.291,1.903-6.171,2.896C9.194,8.074,6.29,9.605,2.273,9.721v0.785c0.677,0.021,1.894,0.248,2.636,1.555
		c0.839,1.479,1.051,2.478,0.675,3.145c-0.266,0.467-0.776,0.703-1.518,0.703H1.861c-0.517,0.257-0.873,0.772-0.873,1.361v5.019
		c0,0.143,0.042,0.272,0.081,0.401h9.765c0.51-3.486,3.448-6.175,7.013-6.175c3.565,0,6.501,2.688,7.014,6.175h35.805
		c0.513-3.486,3.447-6.175,7.012-6.175s6.499,2.688,7.009,6.175h4.727c-0.097-0.215-0.158-0.452-0.158-0.703
		c0-0.939,0.752-1.701,1.678-1.701h3.078v-1.571C84.01,18.033,83.563,17.436,82.923,17.241L82.923,17.241z M84.01,22.689v-1.4
		h-3.078c-0.382,0-0.689,0.314-0.689,0.697c0,0.388,0.308,0.703,0.689,0.703h0.521H84.01L84.01,22.689z M82.493,25.267
		c0.837,0,1.517-0.688,1.517-1.536v-0.035h-2.557h-0.521h-6.143c0,0.023,0.006,0.041,0.006,0.064c0,0.518-0.059,1.021-0.161,1.507
		H82.493L82.493,25.267z M67.677,29.996c3.381,0,6.13-2.796,6.13-6.236c0-3.441-2.749-6.24-6.13-6.24
		c-3.383,0-6.131,2.799-6.131,6.24C61.546,27.2,64.294,29.996,67.677,29.996L67.677,29.996z M60.718,25.267
		c-0.102-0.486-0.16-0.989-0.16-1.507c0-0.023,0.007-0.041,0.007-0.064H24.962c0,0.023,0.006,0.041,0.006,0.064
		c0,0.518-0.058,1.021-0.16,1.507H60.718L60.718,25.267z M17.847,29.996c3.382,0,6.133-2.796,6.133-6.236
		c0-3.441-2.751-6.24-6.133-6.24c-3.382,0-6.133,2.799-6.133,6.24C11.714,27.2,14.465,29.996,17.847,29.996L17.847,29.996z
		 M2.588,23.839l7.978,1.428h0.32c-0.102-0.486-0.16-0.989-0.16-1.507c0-0.023,0.005-0.041,0.005-0.064H1.922
		C2.123,23.784,2.345,23.838,2.588,23.839L2.588,23.839z"/>
	<path fill-rule="evenodd" clip-rule="evenodd" fill="#EE3625" d="M62.2,10.77c-0.007,0-0.013,0-0.018,0
		c-0.317-0.012-31.7-1.209-48.74-2.131c-0.224-0.012-0.411-0.174-0.457-0.396c-0.047-0.223,0.059-0.446,0.256-0.553
		c1.717-0.909,3.667-1.941,5.988-2.816c3.797-1.421,10.439-2.303,17.331-2.303c3.095,0,6.171,0.182,9.148,0.535
		c7.395,0.876,15.113,5.548,16.778,6.753c0.177,0.126,0.25,0.359,0.18,0.57C62.598,10.633,62.411,10.77,62.2,10.77L62.2,10.77z
		 M15.319,7.731c2.125,0.112,4.437,0.225,6.839,0.34V5.051c-0.952,0.234-1.838,0.485-2.585,0.764
		C18.001,6.408,16.597,7.079,15.319,7.731L15.319,7.731z M23.146,4.82v3.299c5.87,0.277,12.264,0.559,18.165,0.807V3.728
		c-1.571-0.099-3.159-0.149-4.75-0.149C31.609,3.578,26.815,4.037,23.146,4.82L23.146,4.82z M45.593,4.105
		c-1.084-0.13-2.191-0.209-3.295-0.293v5.154c7.999,0.334,14.945,0.606,18.104,0.73C57.461,7.915,51.418,4.793,45.593,4.105
		L45.593,4.105z"/>
	<path fill="#EE3625" d="M41.874,11.101c0.273,0,0.493,0.225,0.493,0.503v9.277c0,0.278-0.22,0.503-0.493,0.503
		s-0.494-0.225-0.494-0.503v-9.277C41.38,11.325,41.601,11.101,41.874,11.101L41.874,11.101z"/>
	<path fill="#EE3625" d="M66.218,15.822c-0.169,0-0.334-0.089-0.425-0.248c-1.321-2.277-2.379-3.118-2.391-3.126
		c-0.215-0.169-0.258-0.481-0.094-0.703c0.166-0.223,0.48-0.264,0.69-0.098c0.049,0.038,1.212,0.942,2.643,3.418
		c0.141,0.24,0.062,0.548-0.174,0.686C66.389,15.799,66.302,15.822,66.218,15.822L66.218,15.822z"/>
	<path fill="#EE3625" d="M22.795,10.154c0.273,0,0.493,0.225,0.493,0.502v4.253c0.962,0.423,3.592,1.93,4.132,5.887
		c0.038,0.271-0.152,0.526-0.422,0.564c-0.022,0.003-0.042,0.006-0.066,0.006c-0.245,0-0.453-0.184-0.488-0.435
		c-0.564-4.106-3.667-5.157-3.797-5.201c-0.204-0.064-0.346-0.26-0.346-0.479v-4.596C22.301,10.379,22.521,10.154,22.795,10.154
		L22.795,10.154z"/>
</g>
</svg>
